<?xml version="1.0"?>
<svg xmlns="http://www.w3.org/2000/svg" height="512px" viewBox="0 0 64 64" width="512px"><g><g id="Power_button" data-name="Power button"><path d="m32 1a31 31 0 1 0 31 31 31.035 31.035 0 0 0 -31-31zm0 60a29 29 0 1 1 29-29 29.033 29.033 0 0 1 -29 29z" data-original="#000000" class="active-path" data-old_color="#000000" fill="#FFFFFF"/><path d="m38.3 15.134a1 1 0 1 0 -.7 1.873 16 16 0 1 1 -11.309.042 1 1 0 0 0 -.714-1.869 18 18 0 1 0 12.723-.046z" data-original="#000000" class="active-path" data-old_color="#000000" fill="#FFFFFF"/><path d="m32 30a1 1 0 0 0 1-1v-17a1 1 0 0 0 -2 0v17a1 1 0 0 0 1 1z" data-original="#000000" class="active-path" data-old_color="#000000" fill="#FFFFFF"/></g></g> </svg>
