<?xml version="1.0"?>
<svg xmlns="http://www.w3.org/2000/svg" xmlns:xlink="http://www.w3.org/1999/xlink" version="1.1" id="Capa_1" x="0px" y="0px" viewBox="0 0 512 512" style="enable-background:new 0 0 512 512;" xml:space="preserve" width="512px" height="512px"><g><g>
	<g>
		<path d="M349.751,216.429c-6.507-9.706-15.855-15.272-25.65-15.272s-19.143,5.567-25.649,15.273    c-2.312,3.447-1.39,8.116,2.058,10.428c3.448,2.311,8.117,1.39,10.427-2.058c3.723-5.553,8.397-8.61,13.164-8.61    c4.767,0,9.442,3.057,13.165,8.61c2.313,3.448,6.983,4.37,10.427,2.057C351.141,224.546,352.062,219.878,349.751,216.429z" data-original="#000000" class="active-path" data-old_color="#000000" fill="#FFFFFF"/>
	</g>
</g><g>
	<g>
		<path d="M185.76,198.286c-16.098,0-29.194,13.096-29.194,29.194c0,16.098,13.096,29.194,29.194,29.194    c16.097,0,29.194-13.096,29.194-29.194C214.954,211.383,201.858,198.286,185.76,198.286z M185.76,241.642    c-7.809,0-14.163-6.353-14.163-14.163s6.353-14.163,14.163-14.163s14.163,6.353,14.163,14.163S193.569,241.642,185.76,241.642z" data-original="#000000" class="active-path" data-old_color="#000000" fill="#FFFFFF"/>
	</g>
</g><g>
	<g>
		<path d="M384.512,180.599c-15.615-19.688-37.898-32.596-62.745-36.347c-4.097-0.617-7.934,2.205-8.553,6.309    c-0.619,4.105,2.206,7.934,6.31,8.554c21.07,3.181,39.968,14.128,53.211,30.825c1.483,1.871,3.678,2.846,5.893,2.846    C384.81,192.786,388.462,185.579,384.512,180.599z" data-original="#000000" class="active-path" data-old_color="#000000" fill="#FFFFFF"/>
	</g>
</g><g>
	<g>
		<path d="M193.192,118.318c-0.62-4.105-4.462-6.927-8.553-6.309c-24.847,3.751-47.13,16.66-62.745,36.347    c-2.579,3.253-2.034,7.98,1.219,10.559c3.273,2.596,7.996,2.012,10.558-1.219c13.243-16.697,32.139-27.644,53.212-30.825    C190.985,126.252,193.811,122.422,193.192,118.318z" data-original="#000000" class="active-path" data-old_color="#000000" fill="#FFFFFF"/>
	</g>
</g><g>
	<g>
		<path d="M310.004,320.501c-3.783-1.712-8.235-0.031-9.945,3.751c-4.183,9.244-11.052,16.821-19.868,21.911    c-23.102,13.339-52.749,5.394-66.087-17.708c-0.781-1.353-1.51-2.771-2.168-4.217c-1.719-3.779-6.173-5.449-9.953-3.73    c-3.779,1.719-5.449,6.174-3.731,9.953c0.858,1.886,1.811,3.74,2.834,5.51c11.732,20.321,33.089,31.693,55.021,31.693    c10.75,0,21.639-2.733,31.598-8.483c11.555-6.672,20.562-16.608,26.047-28.734C315.465,326.664,313.786,322.212,310.004,320.501z" data-original="#000000" class="active-path" data-old_color="#000000" fill="#FFFFFF"/>
	</g>
</g><g>
	<g>
		<path d="M441.282,79.209C359.359-7.039,225.873-25.798,122.144,37.688c-3.54,2.167-4.655,6.793-2.487,10.334    c2.169,3.54,6.796,4.654,10.334,2.487C228.703-9.904,357.575,7.76,435.917,95.556l0.329,0.365    c86.909,97.855,79.514,247.412-15.86,336.318c-3.028,2.838-3.184,7.594-0.347,10.623c2.842,3.032,7.597,3.181,10.624,0.346    C531.453,349.571,542.645,186.505,441.282,79.209z" data-original="#000000" class="active-path" data-old_color="#000000" fill="#FFFFFF"/>
	</g>
</g><g>
	<g>
		<path d="M404.353,455.532c-2.372-3.405-7.058-4.245-10.463-1.871c-115.829,80.69-276.048,44.994-346.591-77.199    C-11.368,274.848,11.799,145.17,102.316,70.274c3.198-2.646,3.646-7.383,0.999-10.582c-2.648-3.198-7.383-3.645-10.582-0.999    c-10.884,9.005-19.214,17.253-28.215,27.246c-71.961,81.02-86.167,201.164-30.236,298.04    c74.477,129.007,244.581,168.142,368.201,82.017C405.887,463.622,406.725,458.939,404.353,455.532z" data-original="#000000" class="active-path" data-old_color="#000000" fill="#FFFFFF"/>
	</g>
</g></g> </svg>
